<?xml version="1.0" encoding="UTF-8"?>
<svg width="130" height="130" viewBox="0 0 130 130" fill="none" xmlns="http://www.w3.org/2000/svg">
  <path d="M65 20C65 20 45 40 45 65C45 77.1503 54.8497 87 67 87C79.1503 87 89 77.1503 89 65C89 40 65 20 65 20Z" fill="#4CAF50" fill-opacity="0.2"/>
  <path d="M65 25C65 25 50 42 50 65C50 74.3888 57.6112 82 67 82C76.3888 82 84 74.3888 84 65C84 42 65 25 65 25Z" fill="#66BB6A" fill-opacity="0.3"/>
  <path d="M65 118V87" stroke="#2E7D32" stroke-width="2" stroke-linecap="round"/>
  <path d="M45 93C45 93 55 73 65 58" stroke="#2E7D32" stroke-width="2" stroke-linecap="round"/>
  <path d="M85 93C85 93 75 73 65 58" stroke="#2E7D32" stroke-width="2" stroke-linecap="round"/>
  <path d="M54 103C54 103 62 88 65 78" stroke="#2E7D32" stroke-width="2" stroke-linecap="round"/>
  <path d="M76 103C76 103 68 88 65 78" stroke="#2E7D32" stroke-width="2" stroke-linecap="round"/>
  <path d="M65 118C65 118 55 118 50 113" stroke="#2E7D32" stroke-width="2" stroke-linecap="round"/>
  <path d="M65 118C65 118 75 118 80 113" stroke="#2E7D32" stroke-width="2" stroke-linecap="round"/>
</svg> 