<?xml version="1.0" encoding="UTF-8"?>
<svg width="160" height="160" viewBox="0 0 160 160" fill="none" xmlns="http://www.w3.org/2000/svg">
  <!-- Plant pot -->
  <path d="M60 140H100L108 100H52L60 140Z" fill="#8D6E63" fill-opacity="0.3"/>
  <path d="M60 140H100" stroke="#5D4037" stroke-width="2" stroke-linecap="round"/>
  
  <!-- Plant stem and branches -->
  <path d="M80 100V60" stroke="#388E3C" stroke-width="2" stroke-linecap="round"/>
  <path d="M80 85C80 85 65 75 50 80" stroke="#388E3C" stroke-width="2" stroke-linecap="round"/>
  <path d="M80 75C80 75 100 60 110 65" stroke="#388E3C" stroke-width="2" stroke-linecap="round"/>
  <path d="M80 65C80 65 60 45 45 50" stroke="#388E3C" stroke-width="2" stroke-linecap="round"/>

  <!-- Leaves -->
  <path d="M50 80C50 80 35 75 30 60C30 60 45 65 50 80Z" fill="#66BB6A" fill-opacity="0.4" stroke="#388E3C" stroke-width="1"/>
  <path d="M110 65C110 65 125 55 140 60C140 60 120 70 110 65Z" fill="#66BB6A" fill-opacity="0.4" stroke="#388E3C" stroke-width="1"/>
  <path d="M45 50C45 50 25 35 25 20C25 20 50 40 45 50Z" fill="#66BB6A" fill-opacity="0.4" stroke="#388E3C" stroke-width="1"/>
  
  <!-- Top leaf structure -->
  <path d="M80 60C80 60 75 40 60 20C60 20 90 20 105 35C105 35 90 40 80 60Z" fill="#66BB6A" fill-opacity="0.4" stroke="#388E3C" stroke-width="1"/>
  <path d="M80 60C80 60 90 30 120 25C120 25 105 55 80 60Z" fill="#66BB6A" fill-opacity="0.3" stroke="#388E3C" stroke-width="1"/>
</svg> 